<svg width="68" height="44" viewBox="0 0 68 44" fill="none" xmlns="http://www.w3.org/2000/svg">
<g clip-path="url(#clip0_2_3425)">
<path d="M6.38671 23.5713H3.02341L2.17381 25.9912H1.06641L4.18361 17.5361H5.22661L8.34381 25.9912H7.23631L6.38671 23.5713ZM3.33401 22.6748H6.07621L4.75201 18.9014H4.65821L3.33401 22.6748ZM13.4326 21.6084C13.2685 20.9814 12.7119 20.4717 11.8037 20.4717C10.667 20.4717 9.95211 21.3799 9.95211 22.8096C9.95211 24.2686 10.6787 25.1944 11.8037 25.1944C12.6533 25.1944 13.2451 24.8018 13.4326 24.087H14.4521C14.2705 25.2472 13.3271 26.1026 11.8095 26.1026C10.04 26.1026 8.90911 24.8194 8.90911 22.8096C8.90911 20.8408 10.0341 19.5635 11.8036 19.5635C13.3388 19.5635 14.2763 20.4834 14.452 21.6084H13.4326ZM20.0273 21.6084C19.8632 20.9814 19.3066 20.4717 18.3984 20.4717C17.2617 20.4717 16.5468 21.3799 16.5468 22.8096C16.5468 24.2686 17.2734 25.1944 18.3984 25.1944C19.248 25.1944 19.8398 24.8018 20.0273 24.087H21.0468C20.8652 25.2472 19.9218 26.1026 18.4042 26.1026C16.6347 26.1026 15.5038 24.8194 15.5038 22.8096C15.5038 20.8408 16.6288 19.5635 18.3983 19.5635C19.9335 19.5635 20.871 20.4834 21.0467 21.6084H20.0273ZM27.6069 24.3564C27.3139 25.4345 26.3296 26.1025 24.9467 26.1025C23.1947 26.1025 22.099 24.8369 22.099 22.8388C22.099 20.8525 23.2123 19.5634 24.9467 19.5634C26.6518 19.5634 27.6889 20.7763 27.6889 22.7392V23.1259H23.1479V23.1728C23.2006 24.4208 23.8979 25.2119 24.9702 25.2119C25.7847 25.2119 26.3354 24.9131 26.5991 24.3564H27.6069ZM23.1479 22.3115H26.6284C26.605 21.1924 25.937 20.4541 24.935 20.4541C23.9272 20.4541 23.2241 21.1924 23.1479 22.3115ZM31.3599 19.5635C32.6841 19.5635 33.604 20.2197 33.7388 21.2569H32.7427C32.6079 20.753 32.1157 20.419 31.354 20.419C30.604 20.419 30.0181 20.7999 30.0181 21.3624C30.0181 21.796 30.3697 22.0655 31.1138 22.2472L32.0865 22.4816C33.276 22.7687 33.8502 23.2843 33.8502 24.1925C33.8502 25.3234 32.7545 26.1027 31.319 26.1027C29.9128 26.1027 28.946 25.4289 28.8346 24.38H29.8717C30.0416 24.9132 30.5455 25.253 31.3541 25.253C32.2037 25.253 32.8131 24.8487 32.8131 24.2686C32.8131 23.835 32.485 23.542 31.8111 23.378L30.7271 23.1143C29.5435 22.8272 29.0044 22.3174 29.0044 21.4034C29.0044 20.3545 30.0181 19.5635 31.3599 19.5635ZM37.4038 19.5635C38.728 19.5635 39.6479 20.2197 39.7827 21.2569H38.7866C38.6518 20.753 38.1596 20.419 37.3979 20.419C36.6479 20.419 36.062 20.7999 36.062 21.3624C36.062 21.796 36.4136 22.0655 37.1577 22.2472L38.1304 22.4816C39.3199 22.7687 39.8941 23.2843 39.8941 24.1925C39.8941 25.3234 38.7984 26.1027 37.3629 26.1027C35.9567 26.1027 34.9899 25.4289 34.8785 24.38H35.9156C36.0855 24.9132 36.5894 25.253 37.398 25.253C38.2476 25.253 38.857 24.8487 38.857 24.2686C38.857 23.835 38.5289 23.542 37.855 23.378L36.771 23.1143C35.5874 22.8272 35.0483 22.3174 35.0483 21.4034C35.0483 20.3545 36.062 19.5635 37.4038 19.5635ZM41.0395 22.833C41.0395 20.7998 42.1528 19.5635 43.9516 19.5635C45.7504 19.5635 46.8637 20.7998 46.8637 22.833C46.8637 24.8603 45.7504 26.1025 43.9516 26.1025C42.1528 26.1025 41.0395 24.8603 41.0395 22.833ZM45.8208 22.833C45.8208 21.333 45.147 20.4717 43.9517 20.4717C42.7564 20.4717 42.0826 21.333 42.0826 22.833C42.0826 24.3271 42.7564 25.1943 43.9517 25.1943C45.147 25.1943 45.8208 24.3271 45.8208 22.833ZM48.3262 19.6748H49.2871V20.6123H49.3809C49.5684 19.9971 50.295 19.5635 51.1329 19.5635C51.297 19.5635 51.5079 19.5752 51.6368 19.5928V20.6006C51.5548 20.5772 51.1915 20.542 50.9923 20.542C50.0314 20.542 49.3341 21.1865 49.3341 22.0772V25.9913H48.3263V19.6748H48.3262ZM52.6006 17.7529C52.6006 17.3662 52.917 17.0498 53.3037 17.0498C53.6904 17.0498 54.0068 17.3662 54.0068 17.7529C54.0068 18.1396 53.6904 18.456 53.3037 18.456C52.917 18.456 52.6006 18.1396 52.6006 17.7529ZM52.7998 19.6748H53.8076V25.9912H52.7998V19.6748ZM60.8008 24.3564C60.5078 25.4345 59.5235 26.1025 58.1406 26.1025C56.3886 26.1025 55.2929 24.8369 55.2929 22.8388C55.2929 20.8525 56.4062 19.5634 58.1406 19.5634C59.8457 19.5634 60.8828 20.7763 60.8828 22.7392V23.1259H56.3418V23.1728C56.3945 24.4208 57.0918 25.2119 58.1641 25.2119C58.9786 25.2119 59.5293 24.9131 59.793 24.3564H60.8008ZM56.3418 22.3115H59.8223C59.7989 21.1924 59.1309 20.4541 58.1289 20.4541C57.1211 20.4541 56.418 21.1924 56.3418 22.3115ZM64.5537 19.5635C65.8779 19.5635 66.7978 20.2197 66.9326 21.2569H65.9365C65.8017 20.753 65.3095 20.419 64.5478 20.419C63.7978 20.419 63.2119 20.7999 63.2119 21.3624C63.2119 21.796 63.5635 22.0655 64.3076 22.2472L65.2803 22.4816C66.4698 22.7687 67.044 23.2843 67.044 24.1925C67.044 25.3234 65.9483 26.1027 64.5128 26.1027C63.1066 26.1027 62.1398 25.4289 62.0284 24.38H63.0655C63.2354 24.9132 63.7393 25.253 64.5479 25.253C65.3975 25.253 66.0069 24.8487 66.0069 24.2686C66.0069 23.835 65.6788 23.542 65.0049 23.378L63.9209 23.1143C62.7373 22.8272 62.1982 22.3174 62.1982 21.4034C62.1982 20.3545 63.2119 19.5635 64.5537 19.5635Z" fill="white"/>
</g>
<defs>
<clipPath id="clip0_2_3425">
<rect width="67" height="44" fill="white" transform="translate(0.726562)"/>
</clipPath>
</defs>
</svg>
